<svg width="22" height="23" viewBox="0 0 22 23" fill="none" xmlns="http://www.w3.org/2000/svg">
<path d="M21.872 11.3289C21.862 11.5629 21.852 11.796 21.842 12.028C21.802 12.486 21.742 12.941 21.642 13.39C21.342 14.873 20.722 16.286 19.852 17.519C18.912 18.84 17.672 19.948 16.262 20.739C14.922 21.486 13.4321 21.9459 11.9121 22.0809C10.4921 22.2079 9.04196 22.057 7.68196 21.632C6.37196 21.225 5.14198 20.568 4.08198 19.709C3.05198 18.884 2.18198 17.876 1.51198 16.746C0.921977 15.748 0.492018 14.656 0.242018 13.524C0.0220181 12.483 -0.0480039 11.41 0.0319961 10.349C0.111996 9.26395 0.352028 8.19195 0.752028 7.17995C1.21203 6.03195 1.852 4.96494 2.662 4.03294C3.492 3.07194 4.492 2.25795 5.602 1.63795C6.702 1.02595 7.90203 0.604948 9.13203 0.399948C9.54203 0.331948 9.96202 0.287953 10.372 0.266953C10.552 0.256953 10.7419 0.253953 10.9219 0.251953L10.942 2.68295C10.822 2.68295 10.822 2.68295 10.712 2.68495C10.602 2.68895 10.602 2.68895 10.492 2.69395C10.032 2.71995 9.57201 2.77795 9.11201 2.87695C8.17201 3.08395 7.26203 3.45496 6.44203 3.96796C5.60203 4.49196 4.85202 5.16195 4.24202 5.93895C3.65202 6.69495 3.18202 7.55094 2.87202 8.46194C2.60202 9.26894 2.45202 10.1169 2.43202 10.9689C2.41202 11.7579 2.50203 12.5489 2.69203 13.3139C2.91203 14.15 3.25199 14.9509 3.71199 15.6839C4.25199 16.5509 4.95198 17.32 5.76198 17.942C6.58198 18.57 7.51203 19.0479 8.50203 19.3419C9.57203 19.66 10.702 19.7629 11.802 19.6499C12.982 19.5299 14.1321 19.159 15.1621 18.567C16.2621 17.938 17.212 17.064 17.932 16.026C18.602 15.059 19.0621 13.9539 19.2821 12.799C19.3521 12.448 19.4019 12.092 19.4219 11.735C19.4319 11.552 19.442 11.368 19.442 11.185V10.5809H21.872C21.872 10.8299 21.872 11.0799 21.872 11.3289Z" fill="white"/>
</svg>
