<?xml version="1.0" encoding="UTF-8" standalone="no"?><!DOCTYPE svg PUBLIC "-//W3C//DTD SVG 1.1//EN" "http://www.w3.org/Graphics/SVG/1.1/DTD/svg11.dtd"><svg viewBox="0 0 46 60" width="46px" height="60px" version="1.1" xmlns="http://www.w3.org/2000/svg" xmlns:xlink="http://www.w3.org/1999/xlink" xml:space="preserve" xmlns:serif="http://www.serif.com/" style="fill-rule:evenodd;clip-rule:evenodd;stroke-linejoin:round;stroke-miterlimit:2;"><path id="_221-man" serif:id="221-man" d="M15.484,15.572c2.035,-0 3.687,1.652 3.687,3.687l-0,18.433l-3.687,0l-0,22.121l-4.609,-0l0,-22.121l-1.843,0l0,22.121l-4.608,-0l-0,-22.121l-3.687,0l-0,-18.433c-0,-2.035 1.651,-3.687 3.687,-3.687l11.06,-0Zm26.73,-0c2.035,-0 3.687,1.652 3.687,3.687l-0,18.433l-3.687,0l0,22.121l-4.608,-0l-0,-22.121l-1.844,0l0,22.121l-4.608,-0l-0,-22.121l-3.687,0l0,-18.433c0,-2.035 1.652,-3.687 3.687,-3.687l11.06,-0Zm-26.73,-9.217c-0,3.053 -2.478,5.53 -5.53,5.53c-3.053,0 -5.53,-2.477 -5.53,-5.53c-0,-3.053 2.477,-5.53 5.53,-5.53c3.052,-0 5.53,2.477 5.53,5.53Zm26.73,-0c0,3.053 -2.477,5.53 -5.53,5.53c-3.053,0 -5.53,-2.477 -5.53,-5.53c-0,-3.053 2.477,-5.53 5.53,-5.53c3.053,-0 5.53,2.477 5.53,5.53Z"/></svg>